control3min_grf.mot
version=1
nRows=25
nColumns 19
inDegrees=yes
endheader
time	1_ground_force_vx	1_ground_force_vy	1_ground_force_vz	1_ground_force_px	1_ground_force_py	1_ground_force_pz	1_ground_torque_x	1_ground_torque_y	1_ground_torque_z	2_ground_force_vx	2_ground_force_vy	2_ground_force_vz	2_ground_force_px	2_ground_force_py	2_ground_force_pz	2_ground_torque_x	2_ground_torque_y	2_ground_torque_z
            2.502500	          -22.221318	          909.321482	          -53.413315	           -0.240249	            0.006290	           -0.421179	           -0.089760	            3.673093	           -0.215757	          -35.448092	          716.543578	           66.253355	           -0.228921	            0.005659	           -0.698206	            0.153894	           -3.110801	           -0.287632
            2.503000	          -21.761906	          906.436533	          -53.243397	           -0.240159	            0.006290	           -0.421133	           -0.083446	            3.475746	           -0.204163	          -35.437040	          713.415012	           65.679047	           -0.228801	            0.005659	           -0.698177	            0.144337	           -2.905771	           -0.267514
            2.503500	          -21.759702	          902.468194	          -52.664271	           -0.240097	            0.006290	           -0.421166	           -0.080040	            3.319585	           -0.193717	          -35.191573	          710.286074	           65.480065	           -0.228784	            0.005659	           -0.698135	            0.144515	           -2.916802	           -0.268895
            2.504000	          -21.941083	          899.040782	          -52.128231	           -0.239975	            0.006290	           -0.421131	           -0.084772	            3.473559	           -0.201404	          -34.711997	          707.159032	           64.952487	           -0.228692	            0.005659	           -0.698096	            0.142327	           -2.899501	           -0.266319
            2.504500	          -21.710448	          895.614311	          -51.822499	           -0.239889	            0.006290	           -0.421254	           -0.090272	            3.723970	           -0.215478	          -34.050286	          705.505412	           64.570870	           -0.228604	            0.005661	           -0.698392	            0.140378	           -2.908567	           -0.266205
            2.505000	          -21.662824	          892.727906	          -51.330562	           -0.239886	            0.006289	           -0.421116	           -0.090765	            3.740429	           -0.215069	          -33.847120	          701.088096	           64.132668	           -0.228587	            0.005659	           -0.697944	            0.138252	           -2.863671	           -0.261957
            2.505500	          -21.708544	          887.681834	          -51.673086	           -0.239808	            0.006291	           -0.421352	           -0.087037	            3.559031	           -0.207176	          -32.991379	          697.593791	           63.697472	           -0.228538	            0.005659	           -0.697858	            0.137075	           -2.898411	           -0.264655
            2.506000	          -21.339321	          884.073446	          -50.955761	           -0.239757	            0.006291	           -0.421539	           -0.077953	            3.229544	           -0.186143	          -32.749440	          695.387169	           63.032494	           -0.228430	            0.005659	           -0.697756	            0.132769	           -2.819150	           -0.255538
            2.506500	          -21.016816	          880.286448	          -50.605942	           -0.239782	            0.006291	           -0.421549	           -0.072615	            3.041459	           -0.174848	          -32.363631	          692.260413	           62.364171	           -0.228269	            0.005661	           -0.697966	            0.125303	           -2.680241	           -0.241457
            2.507000	          -20.740513	          875.959338	          -50.441752	           -0.239604	            0.006291	           -0.421570	           -0.072832	            3.076023	           -0.177131	          -31.929644	          688.765422	           61.694514	           -0.228332	            0.005660	           -0.697850	            0.124846	           -2.693088	           -0.241227
            2.507500	          -20.646186	          872.710974	          -49.630487	           -0.239636	            0.006291	           -0.421400	           -0.076415	            3.230050	           -0.183691	          -31.310288	          685.823926	           60.932893	           -0.228175	            0.005661	           -0.697979	            0.124885	           -2.735494	           -0.243038
            2.508000	          -20.416851	          868.926392	          -49.876564	           -0.239333	            0.006291	           -0.421558	           -0.080280	            3.416643	           -0.196116	          -30.639165	          681.591377	           60.776717	           -0.227983	            0.005660	           -0.697663	            0.122691	           -2.729351	           -0.243373
            2.508500	          -20.459577	          864.956470	          -48.930484	           -0.239255	            0.006291	           -0.421451	           -0.081331	            3.438392	           -0.194509	          -30.345602	          678.094875	           60.388688	           -0.227968	            0.005660	           -0.697630	            0.120036	           -2.682301	           -0.238876
            2.509000	          -20.090986	          860.448099	          -48.538012	           -0.239394	            0.006292	           -0.421706	           -0.075012	            3.212594	           -0.181223	          -29.630454	          674.600519	           59.859697	           -0.228003	            0.005660	           -0.697679	            0.117693	           -2.679526	           -0.237764
            2.509500	          -20.043933	          856.301242	          -48.372480	           -0.239244	            0.006292	           -0.421663	           -0.068048	            2.907088	           -0.164221	          -29.524374	          671.104010	           59.284035	           -0.227825	            0.005661	           -0.697703	            0.113975	           -2.590711	           -0.228858
            2.510000	          -19.583542	          851.792692	          -47.934383	           -0.239244	            0.006292	           -0.421766	           -0.062746	            2.729159	           -0.153583	          -29.041479	          667.056325	           58.753172	           -0.227800	            0.005660	           -0.697443	            0.112421	           -2.582205	           -0.227436
            2.510500	          -19.215130	          847.645110	          -47.586224	           -0.239071	            0.006293	           -0.421834	           -0.063604	            2.805807	           -0.157516	          -28.557920	          662.824439	           58.221651	           -0.227814	            0.005659	           -0.697176	            0.106913	           -2.481443	           -0.217967
            2.511000	          -19.213298	          842.596098	          -47.241019	           -0.239094	            0.006294	           -0.422106	           -0.067636	            2.966150	           -0.166300	          -27.846112	          660.250893	           57.649016	           -0.227716	            0.005661	           -0.697472	            0.103714	           -2.459137	           -0.214717
            2.511500	          -19.120061	          839.710096	          -46.840915	           -0.238987	            0.006292	           -0.421746	           -0.070814	            3.109987	           -0.173482	          -27.501714	          655.649715	           57.257025	           -0.227626	            0.005660	           -0.697061	            0.103265	           -2.461880	           -0.214993
            2.512000	          -18.752105	          835.563300	          -46.676179	           -0.238927	            0.006293	           -0.421934	           -0.069963	            3.117429	           -0.174146	          -27.022827	          652.707042	           56.683176	           -0.227550	            0.005661	           -0.697397	            0.101723	           -2.457014	           -0.213375
            2.512500	          -18.749769	          830.873776	          -46.100146	           -0.238845	            0.006293	           -0.421889	           -0.063734	            2.824289	           -0.156703	          -26.351183	          648.291463	           56.197846	           -0.227438	            0.005660	           -0.697053	            0.097636	           -2.402031	           -0.208223
            2.513000	          -18.472601	          824.923262	          -45.713637	           -0.238645	            0.006295	           -0.422243	           -0.055575	            2.481801	           -0.137531	          -25.776624	          644.796813	           55.575057	           -0.227475	            0.005660	           -0.697073	            0.095154	           -2.380248	           -0.205154
            2.513500	          -18.058883	          821.857933	          -45.498518	           -0.238667	            0.006294	           -0.422007	           -0.054108	            2.462445	           -0.136322	          -25.339331	          640.381347	           54.855187	           -0.227449	            0.005660	           -0.696926	            0.092669	           -2.341945	           -0.200611
            2.514000	          -17.781556	          817.529055	          -44.921628	           -0.238469	            0.006294	           -0.422081	           -0.055259	            2.540611	           -0.139602	          -24.864474	          638.543853	           54.191424	           -0.227443	            0.005661	           -0.697360	            0.089764	           -2.305223	           -0.195638
            2.514500	          -17.504405	          812.299407	          -44.486168	           -0.238634	            0.006294	           -0.422096	           -0.059241	            2.749108	           -0.150557	          -24.427164	          634.128219	           53.518482	           -0.227211	            0.005661	           -0.697126	            0.086473	           -2.244828	           -0.189457
